<svg id="Capa_1" enable-background="new 0 0 512 512" height="512" viewBox="0 0 512 512" width="512" xmlns="http://www.w3.org/2000/svg"><g><g clip-rule="evenodd" fill-rule="evenodd"><path d="m364.708 118.66 31.181 359.295c1.276 14.542-11.934 26.561-26.532 26.561h-314.281c-14.599 0-27.808-12.019-26.533-26.561l31.181-359.295c.425-5.074 3.374-7.739 8.419-7.739h288.144c4.424 0 7.939 2.07 8.421 7.739z" fill="#22a6fe"/><path d="m364.708 118.66 31.181 359.295c1.276 14.542-11.934 26.561-26.532 26.561h-24.265c14.599 0 27.809-12.019 26.533-26.561l-31.182-359.295c-.482-5.67-3.997-7.739-8.447-7.739h24.293c4.422 0 7.937 2.07 8.419 7.739z" fill="#0593fc"/><path d="m381.206 411.029c56.381 0 102.36-45.979 102.36-102.36 0-56.382-45.979-102.36-102.36-102.36-56.382 0-102.36 45.979-102.36 102.36s45.978 102.36 102.36 102.36z" fill="#ffe07d"/><path d="m386.223 207.244c56.523 0 102.36 45.808 102.36 102.331 0 56.524-45.836 102.361-102.36 102.361-4.11 0-8.164-.255-12.132-.709 50.797-6.009 90.228-49.211 90.228-101.652 0-52.413-39.43-95.613-90.228-101.623 3.968-.482 8.022-.708 12.132-.708z" fill="#ffd064"/><path d="m127.814 185.246c11.679 0 21.231-9.553 21.231-21.26 0-11.679-9.553-21.232-21.231-21.232-11.707 0-21.231 9.553-21.231 21.232-.001 11.707 9.524 21.26 21.231 21.26z" fill="#365e7d"/><path d="m296.619 185.246c11.707 0 21.231-9.553 21.231-21.26 0-11.679-9.524-21.232-21.231-21.232-11.679 0-21.232 9.553-21.232 21.232 0 11.707 9.553 21.26 21.232 21.26z" fill="#365e7d"/><path d="m329.756 270.315c12.728-12.728 33.562-12.728 46.29 0 3.543 3.515 6.973 3.487 10.29 0 12.756-12.728 33.563-12.728 46.319 0 12.728 12.756 12.728 33.591 0 46.319l-45.95 45.95c-3.713 3.685-7.172 3.798-10.999 0l-45.95-45.95c-12.728-12.728-12.728-33.563 0-46.319z" fill="#f37c7c"/><path d="m397.363 263.086c11.793-4.677 25.796-2.268 35.292 7.229 12.728 12.756 12.728 33.591 0 46.319l-45.95 45.95c-3.713 3.685-7.172 3.798-10.999 0l-6.633-6.662 39.317-39.289c12.728-12.728 12.728-33.562 0-46.319-3.26-3.231-7.002-5.64-11.027-7.228z" fill="#eb5468"/></g><path d="m398.157 417.208 5.215 60.124c.794 9.298-2.806 18.057-9.439 24.577-6.491 6.378-15.449 10.091-24.576 10.091h-314.281c-9.128 0-18.086-3.713-24.605-10.092-6.604-6.52-10.205-15.279-9.412-24.577l1.758-20.296c.368-4.11 3.997-7.172 8.107-6.832 4.139.369 7.2 3.997 6.832 8.135l-1.758 20.268c-.396 4.819 1.559 9.27 4.961 12.615 3.742 3.657 8.901 5.783 14.117 5.783h314.281c5.216 0 10.375-2.126 14.088-5.783 3.401-3.345 5.386-7.795 4.989-12.615l-5.216-60.095c-29.934.51-58.507-10.999-79.683-32.174-19.899-19.871-32.174-47.339-32.174-77.67 0-30.332 12.274-57.799 32.174-77.67 16.101-16.101 37.163-27.241 60.719-30.87l-2.07-23.754c-.34-4.139 2.722-7.767 6.832-8.107 4.139-.368 7.767 2.693 8.107 6.831l2.069 23.755c29.934-.538 58.507 10.97 79.683 32.145 19.871 19.871 32.173 47.339 32.173 77.67s-12.302 57.799-32.173 77.67c-16.1 16.103-37.19 27.243-60.718 30.871zm.057-76.763c2.948-2.948 7.682-2.948 10.63 0 2.919 2.919 2.919 7.682 0 10.602l-22.338 22.309c-2.92 2.948-7.682 2.948-10.602 0l-51.45-51.421c-7.824-7.853-11.736-18.143-11.736-28.46 0-10.318 3.912-20.608 11.736-28.46 7.824-7.824 18.142-11.735 28.46-11.735 10.233 0 20.467 3.855 28.291 11.594 7.795-7.739 18.057-11.594 28.29-11.594 10.318 0 20.608 3.912 28.46 11.735 7.824 7.852 11.736 18.142 11.736 28.46s-3.912 20.608-11.736 28.46l-5.103 5.074c-2.919 2.948-7.682 2.948-10.602 0-2.919-2.919-2.919-7.653 0-10.602l5.103-5.074c4.875-4.904 7.341-11.396 7.341-17.858 0-6.463-2.466-12.955-7.341-17.859-4.904-4.875-11.396-7.342-17.858-7.342-6.463 0-12.955 2.466-17.859 7.342l-5.13 5.16c-2.92 2.919-7.682 2.919-10.602 0l-5.159-5.16c-4.904-4.875-11.368-7.342-17.831-7.342-6.491 0-12.954 2.466-17.858 7.342-4.904 4.904-7.342 11.396-7.342 17.859s2.438 12.954 7.342 17.858l46.149 46.12zm-101.595-179.577c-4.904 0-7.483-3.798-7.483-8.391-.822.539-1.559 1.134-2.24 1.815-2.466 2.466-3.997 5.924-3.997 9.694 0 3.798 1.531 7.229 3.997 9.723 2.495 2.494 5.924 4.025 9.723 4.025 3.798 0 7.228-1.531 9.723-4.025 2.466-2.495 4.025-5.925 4.025-9.723 0-3.77-1.559-7.228-4.025-9.694-.68-.68-1.418-1.275-2.211-1.815 0 4.593-2.58 8.391-7.512 8.391zm-7.483-24.605v-17.858h-153.839v17.858c4.932 1.304 9.326 3.912 12.812 7.427 5.216 5.188 8.419 12.388 8.419 20.296 0 7.937-3.203 15.137-8.419 20.325-5.188 5.215-12.359 8.419-20.296 8.419s-15.137-3.204-20.324-8.419c-5.216-5.188-8.419-12.388-8.419-20.325 0-7.909 3.203-15.108 8.419-20.296 3.486-3.515 7.908-6.123 12.812-7.427v-17.858h-53.036l-26.561 306.088c-.368 4.11-3.997 7.172-8.107 6.832-4.139-.369-7.2-3.997-6.832-8.135l27.156-312.92c.34-3.912 3.6-6.86 7.456-6.86h59.925v-48.134c0-15.194 6.208-29.027 16.242-39.034 10.007-10.034 23.84-16.242 39.034-16.242h73.277c15.193 0 29.026 6.208 39.033 16.243 10.006 10.007 16.243 23.84 16.243 39.034v48.133h59.925c3.969 0 7.2 3.09 7.455 7.002l2.693 30.812c.34 4.139-2.693 7.768-6.832 8.136-4.11.34-7.767-2.693-8.108-6.832l-2.098-24.123h-53.037v17.858c4.904 1.304 9.298 3.912 12.812 7.427 5.188 5.188 8.419 12.388 8.419 20.296 0 7.937-3.231 15.137-8.419 20.325-5.216 5.215-12.387 8.419-20.324 8.419s-15.109-3.204-20.325-8.419c-5.188-5.188-8.419-12.388-8.419-20.325 0-7.909 3.232-15.108 8.419-20.296 3.517-3.515 7.911-6.123 12.844-7.427zm0-32.854v-48.133c0-11.055-4.536-21.118-11.849-28.432-7.314-7.314-17.377-11.849-28.432-11.849h-73.277c-11.055 0-21.118 4.535-28.432 11.849-7.313 7.313-11.849 17.376-11.849 28.432v48.133zm-153.839 49.068c0 4.592-2.58 8.391-7.483 8.391-4.932 0-7.512-3.798-7.512-8.391-.794.539-1.531 1.134-2.211 1.815-2.495 2.466-4.025 5.924-4.025 9.694 0 3.798 1.531 7.229 4.025 9.723s5.924 4.025 9.723 4.025c3.77 0 7.229-1.531 9.694-4.025 2.495-2.495 4.025-5.925 4.025-9.723 0-3.77-1.531-7.228-4.025-9.694-.652-.68-1.417-1.275-2.211-1.815zm312.977 89.123c-17.178-17.15-40.876-27.78-67.068-27.78-26.193 0-49.919 10.63-67.069 27.78-17.178 17.178-27.78 40.876-27.78 67.068s10.602 49.918 27.78 67.068c17.15 17.178 40.876 27.78 67.069 27.78 26.192 0 49.89-10.602 67.068-27.78 17.15-17.15 27.78-40.876 27.78-67.068s-10.63-49.89-27.78-67.068z"/></g></svg>